<svg xmlns="http://www.w3.org/2000/svg" width="547.481" height="547.466" viewBox="0 0 547.481 547.466">
  <path id="our_proud_happy_council_members_wheel" d="M573.045,35.6C421.869,35.6,299.3,158.144,299.3,309.335c0,151.169,122.569,273.731,273.745,273.731S846.781,460.5,846.781,309.335C846.781,158.144,724.214,35.6,573.045,35.6ZM827.262,326.293a12.643,12.643,0,0,0-2.845,24.9q-1.546,9.346-3.766,18.44L692.8,328.855l-86.484-14.582a33.75,33.75,0,0,0,.451-4.531l87.3,9.177,133.821-9.374C827.882,315.183,827.635,320.749,827.262,326.293Zm-12.319,63.225c-.247-.064-.473-.183-.734-.247a12.674,12.674,0,0,0-8.38,23.78c-2.669,5.962-5.483,11.832-8.579,17.533L683.741,358.57l-79.833-35.981a33.7,33.7,0,0,0,1.581-4.69l82.447,30.075,132.318,23.412C818.712,377.539,816.919,383.573,814.944,389.519ZM685.771,536.525a12.672,12.672,0,0,0-22.6,11.2q-8.117,3.067-16.522,5.613L616.56,422l-31.388-81.621a33.94,33.94,0,0,0,4.113-1.983l36.4,79.654,76.466,110.984q-7.747,4.563-15.831,8.593A9.9,9.9,0,0,0,685.771,536.525ZM619.2,558.691a12.655,12.655,0,0,0-24.721,4.521c-6.475.551-13.022.883-19.632.924L582.9,429.652l-7.161-87.21a34.659,34.659,0,0,0,5.848-.945l16.042,86.032,47.364,126.28a251.52,251.52,0,0,1-25.549,6.088C619.359,559.494,619.317,559.093,619.2,558.691Zm-141.752-26.5a12.673,12.673,0,0,0-14.259,7.152c-4.611-2.2-9.128-4.571-13.594-7.047l72.821-113.3,36.394-79.522a33.163,33.163,0,0,0,4.642,1.7l-30.567,82.055-24.41,132.691c-7.451-1.947-14.779-4.241-21.954-6.822a12.118,12.118,0,0,0,.6-1.828A12.662,12.662,0,0,0,477.446,532.187ZM349.333,403.431a12.67,12.67,0,0,0-15.054-4.889q-2.974-7.989-5.419-16.2L459.689,352.22l81.77-31.543a33.744,33.744,0,0,0,1.99,4.284l-79.543,36.945-110.29,77.009q-4.986-8.4-9.334-17.2a12.241,12.241,0,0,0,1.4-.727A12.669,12.669,0,0,0,349.333,403.431ZM319.1,288.5a13,13,0,0,0,1.885.062,12.655,12.655,0,0,0,1.4-25.094c.959-5.333,2.054-10.609,3.36-15.816l127.527,40.677,86.548,14.6a36.931,36.931,0,0,0-.444,4.531l-87.357-9.192-133.8,9.374C318.272,301.192,318.6,294.817,319.1,288.5Zm13.1-62.506a12.841,12.841,0,0,0,1.814.544,12.662,12.662,0,0,0,7.625-23.98c2.434-5.283,5.01-10.491,7.8-15.57L462.335,258.6,542.45,294.71a33.708,33.708,0,0,0-1.7,4.642l-82.618-30.146L326.158,245.848C327.886,239.1,329.955,232.5,332.2,225.99ZM461.834,82.554A12.674,12.674,0,0,0,483.978,70.5q7.768-2.889,15.769-5.271L529.526,195.2l31.59,82.164a34.748,34.748,0,0,0-4.084,1.933L520.4,199.125,444.649,89.205c5.248-3.061,10.595-5.969,16.078-8.669A11.5,11.5,0,0,0,461.834,82.554ZM322.511,355.9a11.922,11.922,0,0,0,1.679-.387,12.655,12.655,0,0,0-5.029-24.621c-.594-7.069-.959-14.209-.966-21.439l133.757,8.527,87.5-6.841a33.417,33.417,0,0,0,.909,6l-86.251,16.156-125.75,47.324C326.025,372.524,324.056,364.292,322.511,355.9ZM564.6,276.291l-16.156-86.655L501.58,64.7c7.14-2.082,14.385-3.887,21.765-5.34a13.1,13.1,0,0,0,.572,2.313A12.674,12.674,0,0,0,548.4,55.682q11.248-1.079,22.745-1.159l-7.966,133,7.211,87.83A33.183,33.183,0,0,0,564.6,276.291ZM605.165,67.716a12.633,12.633,0,0,0,12.169-9.325c6.131,1.071,12.186,2.306,18.151,3.816l-41.366,126.76L578.893,275.69a33.367,33.367,0,0,0-4.861-.5l8.869-87.661L573.081,54.476c6.539,0,13.007.332,19.428.812A12.664,12.664,0,0,0,605.165,67.716Zm60.523,16.192a12.61,12.61,0,0,0,14.18-5.955c5.409,2.507,10.723,5.146,15.921,8.007L623.662,198.187,587.04,278.21a34.055,34.055,0,0,0-4.611-1.638l30.764-82.611L637.349,62.673c6.539,1.7,12.967,3.7,19.3,5.905A12.658,12.658,0,0,0,665.688,83.908Zm54.383,31.125a12.659,12.659,0,0,0,15.289-2.173c5.941,4.9,11.64,10.1,17.106,15.515L652.151,216.416l-57.294,66.851a33.279,33.279,0,0,0-4.614-3.322l50.634-72.106,56.57-120.918c6.081,3.407,12.051,7.026,17.828,10.913A12.658,12.658,0,0,0,720.071,115.033ZM764.709,159a12.629,12.629,0,0,0,15.356,1.783c3.811,5.293,7.465,10.7,10.859,16.284L672.106,238.314,600.44,289.23a34.07,34.07,0,0,0-2.887-3.5l68.466-55.288,87.8-100.728c3.669,3.7,7.188,7.534,10.645,11.45A12.645,12.645,0,0,0,764.709,159Zm31.942,53.917a12.614,12.614,0,0,0,14.527,5.611c2.051,5.39,3.963,10.849,5.649,16.41L686.394,264.96l-81.941,31.614a33.994,33.994,0,0,0-2.1-4.227l79.823-37.08,109.694-76.58c3.279,5.476,6.328,11.1,9.2,16.833a.094.094,0,0,1-.036.021A12.652,12.652,0,0,0,796.651,212.916Zm26.321,46.407c-.2.05-.373.05-.549.1a12.669,12.669,0,0,0,4.231,24.825q1.133,11.586,1.2,23.465l-133.729-8.522-87.557,6.855a34.736,34.736,0,0,0-1.028-5.967l86.427-16.192,125.371-47.174C819.536,244.122,821.435,251.656,822.972,259.323ZM407.584,115.569a13.886,13.886,0,0,0,1.453,1.517A12.66,12.66,0,0,0,427.584,100.1Q435.1,94.869,443,90.158l60.367,118.936,50.489,72.016a32.622,32.622,0,0,0-3.863,3.182L494.074,216.3,392.565,129.391C397.376,124.578,402.419,119.993,407.584,115.569Zm-16.325,15.19L480.184,230.3,547.5,286.979a34.609,34.609,0,0,0-3.3,4.507l-72.3-50.144L350.37,185.37c3.562-6.385,7.349-12.62,11.421-18.654a11.707,11.707,0,0,0,1.8,1.1,12.659,12.659,0,0,0,13.4-21.3Q383.81,138.33,391.259,130.759Zm-13.2,342.619a13.6,13.6,0,0,0,1.617-1.475,12.682,12.682,0,0,0-16.968-18.675q-4.285-6.251-8.218-12.775l119.484-61.587,71.339-50.681a33.285,33.285,0,0,0,2.9,3.512l-68.157,55.041-88.464,101.5Q384.532,481.076,378.059,473.378ZM392.8,489.513l101.122-88.756,56.988-66.478a33.606,33.606,0,0,0,4.6,3.4L505.2,409.341,448.093,531.43q-10.753-6.062-20.848-13.121a12.647,12.647,0,0,0-19.979-15.5C402.293,498.543,397.44,494.148,392.8,489.513Zm158.941,73.721a11.739,11.739,0,0,0,.071-1.334,12.645,12.645,0,0,0-25.029-1.973c-5.616-1.038-11.181-2.194-16.65-3.583L551.967,428.22l15.1-86.1a33.114,33.114,0,0,0,4.93.494l-8.812,87.042,9.928,134.534h-.064C565.872,564.186,558.782,563.811,551.746,563.234ZM739.981,501.8a12.916,12.916,0,0,0-1.171-1.339A12.653,12.653,0,0,0,720.116,517.4c-5.35,3.783-10.816,7.4-16.446,10.773L642.71,408.087l-50.208-71.6a35.6,35.6,0,0,0,3.908-3.225L652,400.883,754.28,488.461C749.7,493.1,744.906,497.527,739.981,501.8Zm15.52-14.617-89.608-100.3-67-56.42a34.213,34.213,0,0,0,3.236-4.595l72.059,49.962,122.189,56.29c-3.747,6.808-7.783,13.447-12.122,19.851a11.347,11.347,0,0,0-1.27-.867,12.665,12.665,0,0,0-13.905,21.052C764.763,477.351,760.212,482.344,755.5,487.184Z" transform="translate(-299.3 -35.599)" fill="rgba(0,80,156,0.05)"/>
</svg>
