<svg xmlns="http://www.w3.org/2000/svg" width="282.733" height="282.727" viewBox="0 0 282.733 282.727">
  <path id="Path_14383" data-name="Path 14383" d="M172.471,81.936A141.364,141.364,0,1,0,313.835,223.3,141.368,141.368,0,0,0,172.471,81.936ZM303.755,232.059a6.529,6.529,0,0,0-1.469,12.857q-.8,4.825-1.946,9.524l-66.026-21.058-44.662-7.531a17.814,17.814,0,0,0,.232-2.339l45.081,4.739,69.108-4.841C304.074,226.322,303.948,229.2,303.755,232.059Zm-6.362,32.651c-.127-.032-.243-.095-.378-.127a6.545,6.545,0,0,0-4.327,12.28c-1.378,3.079-2.831,6.11-4.432,9.054l-58.619-37.191-41.227-18.58a17.472,17.472,0,0,0,.815-2.423L231.8,243.255l68.333,12.092C299.339,258.524,298.415,261.639,297.393,264.711Zm-66.707,75.918a6.545,6.545,0,0,0-11.67,5.785q-4.192,1.586-8.533,2.9l-15.542-67.829-16.209-42.152a17.608,17.608,0,0,0,2.125-1.023l18.8,41.136,39.489,57.314q-4,2.356-8.175,4.438A5.174,5.174,0,0,0,230.686,340.629Zm-34.381,11.447a6.535,6.535,0,0,0-12.765,2.334c-3.345.285-6.726.456-10.14.477l4.161-69.451-3.7-45.037a17.917,17.917,0,0,0,3.02-.488l8.285,44.428,24.46,65.215a129.935,129.935,0,0,1-13.2,3.144C196.388,352.49,196.366,352.284,196.305,352.076Zm-73.2-13.688a6.544,6.544,0,0,0-7.364,3.694c-2.383-1.137-4.714-2.36-7.021-3.639l37.607-58.51,18.8-41.067a16.943,16.943,0,0,0,2.4.878L151.73,282.118l-12.606,68.525c-3.847-1-7.632-2.191-11.338-3.523a6.2,6.2,0,0,0,.311-.944A6.539,6.539,0,0,0,123.1,338.388ZM56.94,271.9a6.543,6.543,0,0,0-7.775-2.526q-1.535-4.126-2.8-8.364l67.565-15.557,42.229-16.29a17.094,17.094,0,0,0,1.028,2.212l-41.078,19.08L59.152,290.22q-2.574-4.339-4.82-8.881a6.326,6.326,0,0,0,.724-.375A6.541,6.541,0,0,0,56.94,271.9ZM41.328,212.539a6.524,6.524,0,0,0,1.7-12.926c.5-2.755,1.06-5.479,1.735-8.169l65.859,21.007,44.694,7.538a19.016,19.016,0,0,0-.229,2.339l-45.114-4.747-69.094,4.841C40.9,219.1,41.066,215.8,41.328,212.539Zm6.766-32.279a6.441,6.441,0,0,0,.936.281,6.54,6.54,0,0,0,3.939-12.384c1.257-2.729,2.587-5.417,4.029-8.04L115.3,197.1l41.372,18.647a17.277,17.277,0,0,0-.873,2.4L113.13,202.578,44.972,190.516C45.865,187.033,46.933,183.623,48.094,180.26Zm66.945-74.074a6.545,6.545,0,0,0,11.436-6.223q4.011-1.491,8.143-2.721L150,164.357l16.314,42.433a17.721,17.721,0,0,0-2.108,1l-18.921-41.4-39.117-56.765c2.711-1.582,5.472-3.082,8.3-4.479A5.847,5.847,0,0,0,115.039,106.186ZM43.089,247.35a5.964,5.964,0,0,0,.866-.2,6.535,6.535,0,0,0-2.6-12.715c-.3-3.65-.494-7.336-.5-11.072l69.076,4.405,45.187-3.535a17.312,17.312,0,0,0,.471,3.1l-44.543,8.343L46.108,260.112C44.9,255.933,43.887,251.682,43.089,247.35ZM168.11,206.237l-8.343-44.751-24.2-64.521c3.687-1.075,7.43-2.008,11.24-2.758a6.712,6.712,0,0,0,.3,1.195,6.545,6.545,0,0,0,12.644-3.093q5.81-.558,11.746-.6L167.377,160.4l3.723,45.358A17.176,17.176,0,0,0,168.11,206.237ZM189.059,98.524a6.525,6.525,0,0,0,6.284-4.817c3.166.554,6.292,1.192,9.374,1.972L183.353,161.14l-7.863,44.788a17.146,17.146,0,0,0-2.51-.26l4.58-45.271-5.071-68.71c3.376,0,6.717.171,10.033.419A6.539,6.539,0,0,0,189.059,98.524Zm31.255,8.361a6.513,6.513,0,0,0,7.323-3.075c2.795,1.294,5.537,2.656,8.224,4.135L198.612,165.9,179.7,207.228a17.671,17.671,0,0,0-2.382-.846L193.2,163.719l12.475-67.8c3.378.878,6.7,1.914,9.964,3.05A6.538,6.538,0,0,0,220.313,106.885ZM248.4,122.959a6.535,6.535,0,0,0,7.895-1.123c3.069,2.529,6.013,5.215,8.835,8.013l-51.806,45.467-29.587,34.523a17.167,17.167,0,0,0-2.383-1.715L207.5,170.886l29.214-62.445c3.14,1.761,6.223,3.628,9.207,5.637A6.536,6.536,0,0,0,248.4,122.959Zm23.052,22.705a6.525,6.525,0,0,0,7.931.921c1.966,2.732,3.853,5.524,5.606,8.409l-61.36,31.631-37.011,26.294a17.658,17.658,0,0,0-1.49-1.807l35.357-28.553,45.34-52.019c1.9,1.909,3.713,3.892,5.5,5.914A6.53,6.53,0,0,0,271.451,145.664Zm16.5,27.845a6.51,6.51,0,0,0,7.5,2.9c1.06,2.784,2.047,5.6,2.917,8.476l-67.36,15.5L188.69,216.711a17.576,17.576,0,0,0-1.086-2.183l41.223-19.149,56.649-39.547c1.693,2.827,3.269,5.735,4.751,8.693a.038.038,0,0,1-.018.011A6.533,6.533,0,0,0,287.947,173.509Zm13.593,23.966c-.1.026-.193.026-.285.05a6.543,6.543,0,0,0,2.186,12.82q.585,5.984.62,12.118L235,218.063,189.784,221.6a17.879,17.879,0,0,0-.532-3.082l44.633-8.361L298.629,185.8C299.765,189.623,300.746,193.514,301.54,197.475ZM87.023,123.236a7.092,7.092,0,0,0,.75.783,6.538,6.538,0,0,0,9.579-8.77q3.88-2.705,7.96-5.137l31.175,61.421,26.073,37.191a16.662,16.662,0,0,0-1.995,1.643l-28.877-35.111L79.266,130.374C81.75,127.889,84.355,125.52,87.023,123.236Zm-8.432,7.844,45.924,51.4,34.764,29.274a17.754,17.754,0,0,0-1.706,2.328l-37.34-25.9-62.758-28.9c1.84-3.3,3.8-6.518,5.9-9.632a6.349,6.349,0,0,0,.929.568,6.539,6.539,0,0,0,6.923-11Q74.745,134.991,78.591,131.08ZM71.775,308.017a6.9,6.9,0,0,0,.835-.762,6.549,6.549,0,0,0-8.762-9.643q-2.214-3.228-4.245-6.6l61.706-31.805,36.839-26.173a17.278,17.278,0,0,0,1.5,1.813l-35.2,28.426L78.762,315.693Q75.119,311.995,71.775,308.017Zm7.615,8.332,52.222-45.836,29.43-34.331a17.231,17.231,0,0,0,2.376,1.756l-25.983,37.008L107.941,338q-5.553-3.13-10.764-6.777a7.013,7.013,0,0,0,.56-.863,6.545,6.545,0,0,0-10.879-7.142C84.289,321.014,81.784,318.744,79.39,316.35Zm82.081,38.072a6.053,6.053,0,0,0,.037-.69,6.53,6.53,0,0,0-12.926-1.019c-2.9-.537-5.775-1.134-8.6-1.851l21.6-66.165,7.8-44.466a17.089,17.089,0,0,0,2.547.255l-4.551,44.95,5.126,69.477h-.032C168.766,354.913,165.1,354.72,161.471,354.422Zm97.21-31.726a6.374,6.374,0,0,0-9.859-.39,6.521,6.521,0,0,0-.4,8.445c-2.763,1.953-5.585,3.821-8.493,5.563L208.448,274.3l-25.93-36.974a18.335,18.335,0,0,0,2.019-1.666l28.709,34.921,52.818,45.227C263.7,318.2,261.223,320.489,258.681,322.7Zm8.016-7.549-46.278-51.8-34.6-29.137a17.412,17.412,0,0,0,1.672-2.373l37.213,25.8,63.1,29.07c-1.935,3.515-4.018,6.945-6.259,10.252a5.748,5.748,0,0,0-.656-.448,6.54,6.54,0,0,0-7.18,10.871C271.48,310.069,269.129,312.648,266.7,315.147Z" transform="translate(-31.102 -81.936)" fill="#00509c"/>
</svg>
