<svg xmlns="http://www.w3.org/2000/svg" width="120" height="120" viewBox="0 0 120 120">
  <g id="icon-check-alt2" transform="translate(-0.315 -0.5)">
    <path id="Shape" d="M60,120a59.719,59.719,0,0,1-33.546-10.248,60.18,60.18,0,0,1-21.739-26.4,59.917,59.917,0,0,1,5.532-56.9,60.18,60.18,0,0,1,26.4-21.739,59.916,59.916,0,0,1,56.9,5.532,60.18,60.18,0,0,1,21.739,26.4,59.916,59.916,0,0,1-5.532,56.9,60.18,60.18,0,0,1-26.4,21.739A59.617,59.617,0,0,1,60,120ZM60,7.5A52.5,52.5,0,1,0,112.5,60,52.56,52.56,0,0,0,60,7.5Z" transform="translate(0.315 0.5)" fill="#fce1d5"/>
    <g id="cancel" transform="translate(37.839 37.008)">
      <g id="Group_56914" data-name="Group 56914" transform="translate(0 0.016)">
        <path id="Path_26203" data-name="Path 26203" d="M28,22.961,45.159,5.8a2.515,2.515,0,0,0,0-3.549l-1.5-1.5a2.516,2.516,0,0,0-3.55,0L22.947,17.907,5.788.749a2.515,2.515,0,0,0-3.549,0l-1.5,1.5a2.512,2.512,0,0,0,0,3.549L17.893,22.961.734,40.119a2.517,2.517,0,0,0,0,3.55l1.5,1.5a2.515,2.515,0,0,0,3.549,0L22.947,28.014,40.105,45.173a2.49,2.49,0,0,0,1.775.733h0a2.491,2.491,0,0,0,1.775-.733l1.5-1.5a2.517,2.517,0,0,0,0-3.55Z" transform="translate(0 -0.016)" fill="#ef6a30"/>
      </g>
    </g>
  </g>
</svg>
