<svg xmlns="http://www.w3.org/2000/svg" width="425.795" height="213.802" viewBox="0 0 425.795 213.802">
  <g id="Group_4494" data-name="Group 4494" transform="translate(0 0)" opacity="0.3">
    <path id="Path_14385" data-name="Path 14385" d="M496.918,195.014c-31.4-.167-46.58,6.956-68.12-24.094-12.271-19.644-23.172-36.971-44.534-48.72-19.407-11.289-170-26.992-199.867-16.752.353-9.542,0-34.473,0-47.2,32-8.327,173.265,12.74,205.177,20.112,27.026,6.515,49.848,21.781,60.148,47.6,8.584,18.7,8.5,34.4,27.462,46.321,40.323,23.67,78.69-16.526,110.783,27.049,13.557,17.988,24.056,39.413,21.223,61.089C594.217,221.189,535.731,195.074,496.918,195.014Z" transform="translate(-183.859 -56.333)" fill="#ff8900"/>
    <path id="Path_14386" data-name="Path 14386" d="M384.769,116.239c21.362,11.749,32.263,29.077,44.534,48.72,21.541,31.05,36.724,23.927,68.12,24.094,38.813.06,97.3,26.175,112.272,65.407a37.716,37.716,0,0,1-.99,5.089l-2.33,1.563c-45.814-43.3-102.627-62.145-166.086-60.726-15.7-.083-29.851,4.554-35.687-9.516-4.551-12.954,12.345-29.857,5.4-42.638-10.7-22.479-193.242-26.214-225.1-10.9,1.223-14.361-.525-23.541,0-37.853C214.77,89.247,365.362,104.95,384.769,116.239Z" transform="translate(-184.365 -50.373)" fill="#fff"/>
    <path id="Path_14387" data-name="Path 14387" d="M413.321,144.081c6.95,12.78-9.947,29.684-5.4,42.638,5.836,14.069,19.989,9.433,35.687,9.516,63.46-1.419,120.272,17.43,166.086,60.726l-8.619,3.061c-25.315-33.2-61.226-44.208-104.464-41.112-22.82,1.632-85.164,17.05-101.641-10.741-6.868-11.581,5.141-29.34-.437-39.807-6.866-11.58-27.2-8.917-39.209-8.055-27.623,1.979-147.048-2.045-167.547,15.117.444-15.581-.723-28.52.444-42.236C220.079,117.867,402.618,121.6,413.321,144.081Z" transform="translate(-187.688 -46.219)" fill="#009e03"/>
  </g>
</svg>
