<svg xmlns="http://www.w3.org/2000/svg" width="64" height="64" viewBox="0 0 64 64">
  <g id="icon-check-alt2" transform="translate(-0.315)">
    <path id="Shape" d="M32,64a31.85,31.85,0,0,1-17.891-5.465A32.1,32.1,0,0,1,2.515,44.455,31.956,31.956,0,0,1,5.465,14.109,32.1,32.1,0,0,1,19.545,2.515,31.955,31.955,0,0,1,49.891,5.465,32.1,32.1,0,0,1,61.485,19.545a31.955,31.955,0,0,1-2.951,30.346A32.1,32.1,0,0,1,44.455,61.485,31.8,31.8,0,0,1,32,64ZM32,4A28,28,0,1,0,60,32,28.032,28.032,0,0,0,32,4Z" transform="translate(0.315)" fill="rgba(42,167,59,0.3)"/>
    <path id="Path" d="M28.541.458a2.8,2.8,0,0,0-3.876.812l-13.5,20.636L4.7,15.93A2.8,2.8,0,1,0,.9,20.042L9.825,28.3c.032.028.072.036.1.064.08.064.128.152.212.212a2.256,2.256,0,0,0,.384.152,2.83,2.83,0,0,0,.46.184,2.648,2.648,0,0,0,.468.072,2.7,2.7,0,0,0,.672-.008c.092-.016.18-.04.272-.064a2.791,2.791,0,0,0,.784-.328c.044-.028.08-.06.124-.088a2.53,2.53,0,0,0,.48-.348,2.657,2.657,0,0,0,.224-.368s.012-.008.012-.012L29.349,4.338A2.8,2.8,0,0,0,28.541.458Z" transform="translate(17.79 18.814)" fill="#2aa73b"/>
  </g>
</svg>
