<svg xmlns="http://www.w3.org/2000/svg" width="20" height="28.444" viewBox="0 0 20 28.444">
  <g id="addresss" transform="translate(10968 6606.755)">
    <path id="Path_26271" data-name="Path 26271" d="M86,0a10,10,0,0,0-8.507,15.258l7.938,12.792a.833.833,0,0,0,.708.394h.007a.833.833,0,0,0,.708-.405L94.59,15.123A10,10,0,0,0,86,0Zm7.159,14.268L86.126,26.01,78.909,14.38a8.339,8.339,0,1,1,14.25-.113Z" transform="translate(-11044 -6606.755)" fill="#ff8e29"/>
    <path id="Path_26272" data-name="Path 26272" d="M171,90a5,5,0,1,0,5,5A5.006,5.006,0,0,0,171,90Zm0,8.344A3.344,3.344,0,1,1,174.339,95,3.347,3.347,0,0,1,171,98.344Z" transform="translate(-11129 -6691.755)" fill="#ff8e29"/>
  </g>
</svg>
