<svg xmlns="http://www.w3.org/2000/svg" width="50" height="50" viewBox="0 0 50 50">
  <g id="contact" transform="translate(11196 7123)">
    <circle id="Ellipse_1307" data-name="Ellipse 1307" cx="25" cy="25" r="25" transform="translate(-11196 -7123)" fill="none"/>
    <path id="Path_26268" data-name="Path 26268" d="M22.781,43.365a2.8,2.8,0,0,0-2.027-.93,2.89,2.89,0,0,0-2.051.924l-1.9,1.889c-.156-.084-.312-.162-.462-.24-.216-.108-.42-.21-.594-.318a20.6,20.6,0,0,1-4.936-4.5A12.152,12.152,0,0,1,9.2,37.637c.492-.45.948-.918,1.391-1.367.168-.168.336-.342.5-.51a2.752,2.752,0,0,0,0-4.15L9.455,29.973c-.186-.186-.378-.378-.558-.57-.36-.372-.738-.756-1.127-1.115a2.839,2.839,0,0,0-2.009-.882,2.938,2.938,0,0,0-2.039.882L3.71,28.3,1.671,30.357a4.388,4.388,0,0,0-1.3,2.789,10.513,10.513,0,0,0,.768,4.45,25.822,25.822,0,0,0,4.588,7.652,28.222,28.222,0,0,0,9.4,7.359A14.642,14.642,0,0,0,20.4,54.166c.126.006.258.012.378.012a4.519,4.519,0,0,0,3.46-1.487c.006-.012.018-.018.024-.03a13.633,13.633,0,0,1,1.05-1.086c.258-.246.522-.5.78-.774A2.992,2.992,0,0,0,27,48.726a2.882,2.882,0,0,0-.924-2.057Zm2.147,6.315c-.006,0-.006.006,0,0-.234.252-.474.48-.732.732a15.77,15.77,0,0,0-1.157,1.2,2.891,2.891,0,0,1-2.255.954c-.09,0-.186,0-.276-.006a13.007,13.007,0,0,1-4.678-1.4,26.64,26.64,0,0,1-8.852-6.933A24.348,24.348,0,0,1,2.66,37.032a8.563,8.563,0,0,1-.672-3.754A2.753,2.753,0,0,1,2.816,31.5l2.045-2.045a1.363,1.363,0,0,1,.912-.426,1.283,1.283,0,0,1,.876.42l.018.018c.366.342.714.7,1.079,1.074.186.192.378.384.57.582l1.637,1.637a1.145,1.145,0,0,1,0,1.859c-.174.174-.342.348-.516.516-.5.516-.984,1-1.505,1.463-.012.012-.024.018-.03.03a1.223,1.223,0,0,0-.312,1.361l.018.054A13.144,13.144,0,0,0,9.545,41.2l.006.006a22.012,22.012,0,0,0,5.326,4.846,8.189,8.189,0,0,0,.738.4c.216.108.42.21.594.318.024.012.048.03.072.042a1.3,1.3,0,0,0,.594.15,1.282,1.282,0,0,0,.912-.414L19.836,44.5a1.357,1.357,0,0,1,.906-.45,1.221,1.221,0,0,1,.864.438l.012.012,3.3,3.3A1.186,1.186,0,0,1,24.928,49.68Z" transform="translate(-11185.531 -7137.97)" fill="#ff8e29"/>
    <path id="Path_26269" data-name="Path 26269" d="M245.61,87.531a7.718,7.718,0,0,1,6.285,6.285.8.8,0,0,0,.8.672,1.071,1.071,0,0,0,.138-.012.81.81,0,0,0,.666-.936,9.333,9.333,0,0,0-7.6-7.6.814.814,0,0,0-.936.66A.8.8,0,0,0,245.61,87.531Z" transform="translate(-11415.461 -7192.98)" fill="#ff8e29"/>
    <path id="Path_26270" data-name="Path 26270" d="M262.238,12.535A15.368,15.368,0,0,0,249.716.013a.808.808,0,1,0-.264,1.6A13.726,13.726,0,0,1,260.643,12.8a.8.8,0,0,0,.8.672,1.07,1.07,0,0,0,.138-.012A.8.8,0,0,0,262.238,12.535Z" transform="translate(-11419.063 -7112.208)" fill="#ff8e29"/>
  </g>
</svg>
