<svg xmlns="http://www.w3.org/2000/svg" width="50" height="50" viewBox="0 0 50 50">
  <g id="eye" transform="translate(10635 6502)">
    <circle id="Ellipse_1308" data-name="Ellipse 1308" cx="25" cy="25" r="25" transform="translate(-10635 -6502)" fill="none"/>
    <path id="Path_26360" data-name="Path 26360" d="M17.113,0C10.729,0,4.793,3.711.293,8.236A1,1,0,0,0,1.715,9.65c2.839-2.855,8.615-7.644,15.4-7.644s12.559,4.79,15.4,7.644a1,1,0,0,0,1.422-1.414C29.431,3.708,23.5,0,17.113,0Zm0,0" transform="translate(-10627.001 -6490)" fill="#ff8e29"/>
    <path id="Path_26361" data-name="Path 26361" d="M5.081,76.8c3.371,2.894,7.55,5.255,12.03,5.255s8.66-2.362,12.03-5.255a33.392,33.392,0,0,0,4.892-5.187,1,1,0,0,0,0-1.175,33.393,33.393,0,0,0-4.892-5.187C25.771,62.361,21.592,60,17.111,60s-8.66,2.362-12.03,5.255A33.384,33.384,0,0,0,.189,70.442a1,1,0,0,0,0,1.175A33.392,33.392,0,0,0,5.081,76.8Zm12.03-14.8c4.256,0,8.163,2.579,10.691,4.743a33.142,33.142,0,0,1,4.15,4.281,33.254,33.254,0,0,1-4.346,4.444c-2.763,2.326-6.477,4.581-10.494,4.581-4.256,0-8.163-2.579-10.691-4.743A33.164,33.164,0,0,1,2.27,71.03a33.457,33.457,0,0,1,3.812-3.982c2.808-2.479,6.747-5.042,11.029-5.042Zm0,0" transform="translate(-10626.999 -6545.989)" fill="#ff8e29"/>
    <path id="Path_26362" data-name="Path 26362" d="M158.019,134.037A7.019,7.019,0,1,0,151,127.019,7.026,7.026,0,0,0,158.019,134.037Zm0-12.032a5.013,5.013,0,1,1-5.013,5.013A5.019,5.019,0,0,1,158.019,122.005Zm0,0" transform="translate(-10767.906 -6601.979)" fill="#ff8e29"/>
    <path id="Path_26363" data-name="Path 26363" d="M214.008,186.016A3.008,3.008,0,1,0,211,183.008,3.011,3.011,0,0,0,214.008,186.016Zm0-4.011a1,1,0,1,1-1,1A1,1,0,0,1,214.008,182.005Zm0,0" transform="translate(-10823.896 -6657.968)" fill="#ff8e29"/>
  </g>
</svg>
