<svg xmlns="http://www.w3.org/2000/svg" width="50" height="50" viewBox="0 0 50 50">
  <g id="full_name" transform="translate(11025 7161)">
    <circle id="Ellipse_1305" data-name="Ellipse 1305" cx="25" cy="25" r="25" transform="translate(-11025 -7161)" fill="none"/>
    <path id="Path_26267" data-name="Path 26267" d="M21.464,16.256a12.525,12.525,0,0,0-4.778-3,7.269,7.269,0,1,0-8.226,0A12.593,12.593,0,0,0,0,25.147H1.965a10.609,10.609,0,0,1,21.218,0h1.965A12.492,12.492,0,0,0,21.464,16.256Zm-8.891-3.683a5.3,5.3,0,1,1,5.3-5.3A5.31,5.31,0,0,1,12.574,12.574Z" transform="translate(-11012.574 -7148.573)" fill="#ff8e29"/>
  </g>
</svg>
