<svg xmlns="http://www.w3.org/2000/svg" width="60" height="60" viewBox="0 0 60 60">
  <g id="Group_3" data-name="Group 3" transform="translate(-1434 -855)">
    <circle id="Ellipse_1" data-name="Ellipse 1" cx="30" cy="30" r="30" transform="translate(1434 855)" fill="none"/>
    <g id="Group_2" data-name="Group 2">
      <path id="Path_26360" data-name="Path 26360" d="M19.192,0C12.032,0,5.375,4.162.328,9.237a1.124,1.124,0,0,0,1.595,1.586c3.184-3.2,9.662-8.573,17.271-8.573s14.085,5.372,17.271,8.573A1.124,1.124,0,1,0,38.06,9.237C33.006,4.158,26.355,0,19.192,0Zm0,0" transform="translate(1444.806 869.384)" fill="#ff8e29"/>
      <g id="private" transform="translate(1446.702 836.093)">
        <g id="Group_1" data-name="Group 1" transform="translate(0 33.926)">
          <path id="Path_1" data-name="Path 1" d="M34.359,48.042a32.8,32.8,0,0,0-7.473-7.115l4.875-4.875a1.236,1.236,0,1,0-1.717-1.777l-.03.03-5.326,5.321A15.978,15.978,0,0,0,17.3,37.648C7.908,37.648.545,47.617.236,48.041a1.236,1.236,0,0,0,0,1.453A32.8,32.8,0,0,0,7.709,56.61L2.833,61.485A1.236,1.236,0,1,0,4.55,63.263l.03-.03,5.326-5.321A15.978,15.978,0,0,0,17.3,59.888c9.39,0,16.753-9.968,17.062-10.393A1.235,1.235,0,0,0,34.359,48.042ZM9.505,54.817a30.764,30.764,0,0,1-6.7-6.049c1.819-2.2,7.717-8.649,14.488-8.649a13.079,13.079,0,0,1,5.546,1.359L20.7,43.623a6.168,6.168,0,0,0-8.55,8.55ZM20.634,47.18A3.646,3.646,0,0,1,21,48.768,3.707,3.707,0,0,1,17.3,52.475,3.646,3.646,0,0,1,15.71,52.1Zm-6.672,3.175a3.646,3.646,0,0,1-.371-1.588A3.707,3.707,0,0,1,17.3,45.061a3.646,3.646,0,0,1,1.588.371ZM17.3,57.417a13.079,13.079,0,0,1-5.546-1.359L13.9,53.913a6.168,6.168,0,0,0,8.55-8.55l2.644-2.644a30.766,30.766,0,0,1,6.7,6.049C29.967,50.971,24.069,57.417,17.3,57.417Z" transform="translate(0 -33.926)" fill="#ff8e29"/>
        </g>
      </g>
    </g>
  </g>
</svg>
