<svg xmlns="http://www.w3.org/2000/svg" width="50" height="50" viewBox="0 0 50 50">
  <g id="mail_id" transform="translate(11092 7218)">
    <circle id="Ellipse_1304" data-name="Ellipse 1304" cx="25" cy="25" r="25" transform="translate(-11092 -7218)" fill="none"/>
    <path id="Path_95" data-name="Path 95" d="M23.921,57.75H3.332A3.335,3.335,0,0,0,0,61.082V75.154a3.335,3.335,0,0,0,3.332,3.332H23.916a3.335,3.335,0,0,0,3.332-3.332V61.088A3.331,3.331,0,0,0,23.921,57.75Zm1.81,17.4a1.812,1.812,0,0,1-1.81,1.81H3.332a1.812,1.812,0,0,1-1.81-1.81V61.088a1.812,1.812,0,0,1,1.81-1.81H23.916a1.812,1.812,0,0,1,1.81,1.81V75.154Z" transform="translate(-11080.624 -7261.118)" fill="#ff8e29"/>
    <path id="Path_96" data-name="Path 96" d="M69.793,116.212l6.664-5.976a.762.762,0,1,0-1.02-1.133l-9.19,8.248-1.793-1.6c-.006-.006-.011-.011-.011-.017a1.126,1.126,0,0,0-.124-.107l-7.3-6.529a.763.763,0,0,0-1.015,1.139l6.743,6.027-6.715,6.286A.764.764,0,0,0,56,123.626a.779.779,0,0,0,.558.242.763.763,0,0,0,.519-.2l6.816-6.376,1.849,1.652a.759.759,0,0,0,1.015-.006l1.9-1.7,6.777,6.438a.763.763,0,0,0,1.077-.028.764.764,0,0,0-.028-1.077Z" transform="translate(-11133.233 -7309.387)" fill="#ff8e29"/>
  </g>
</svg>
