<svg xmlns="http://www.w3.org/2000/svg" width="23.49" height="21.61" viewBox="0 0 23.49 21.61">
  <g id="Group_56836" data-name="Group 56836" transform="translate(7733 13344)">
    <g id="Group_56835" data-name="Group 56835" transform="translate(59.998 93.953)">
      <g id="Group_56444" data-name="Group 56444" transform="translate(-7788.229 -13431.527)">
        <path id="Path_26365" data-name="Path 26365" d="M777.3,169.8a1.6,1.6,0,1,1-1.236,1.105A1.629,1.629,0,0,1,777.3,169.8Zm.192,1.055a.54.54,0,1,0,.49.153.538.538,0,0,0-.49-.153Z" transform="translate(-775.994 -169.776)" fill="#ff8e29"/>
      </g>
      <g id="Group_56445" data-name="Group 56445" transform="translate(-7782.861 -13431.528)">
        <path id="Path_26366" data-name="Path 26366" d="M857.3,169.8a1.6,1.6,0,1,1-1.182.96,1.6,1.6,0,0,1,1.182-.96Zm.2,1.056a.539.539,0,1,0,.51.175.538.538,0,0,0-.51-.175Z" transform="translate(-855.994 -169.776)" fill="#ff8e29"/>
      </g>
      <g id="Group_56446" data-name="Group 56446" transform="translate(-7777.494 -13431.533)">
        <path id="Path_26367" data-name="Path 26367" d="M937.29,169.775a1.607,1.607,0,1,1-1.177.951A1.635,1.635,0,0,1,937.29,169.775Zm.2,1.057a.541.541,0,1,0,.51.177.538.538,0,0,0-.51-.177Z" transform="translate(-935.985 -169.746)" fill="#ff8e29"/>
      </g>
      <path id="Path_26200" data-name="Path 26200" d="M20.261-1.332H3.23A3.233,3.233,0,0,0,0,1.9V12.32a3.233,3.233,0,0,0,3.218,3.229v4.73l6.8-4.73H20.261A3.233,3.233,0,0,0,23.49,12.32V1.9a3.233,3.233,0,0,0-3.229-3.229ZM22.114,12.32a1.855,1.855,0,0,1-1.853,1.853H9.584L4.595,17.644V14.173H3.23A1.855,1.855,0,0,1,1.377,12.32V1.9A1.855,1.855,0,0,1,3.23.044H20.261A1.855,1.855,0,0,1,22.114,1.9Zm0,0" transform="translate(-7792.999 -13436.621)" fill="#ff8e29"/>
    </g>
  </g>
</svg>
