<svg xmlns="http://www.w3.org/2000/svg" width="50" height="50" viewBox="0 0 50 50">
  <g id="password" transform="translate(11087 7101)">
    <circle id="Ellipse_1306" data-name="Ellipse 1306" cx="25" cy="25" r="25" transform="translate(-11087 -7101)" fill="none"/>
    <path id="Path_26074" data-name="Path 26074" d="M20.613,25.774H5.516A2.519,2.519,0,0,1,3,23.258V11.516A2.519,2.519,0,0,1,5.516,9h15.1a2.519,2.519,0,0,1,2.516,2.516V23.258A2.519,2.519,0,0,1,20.613,25.774Zm-15.1-15.1a.84.84,0,0,0-.839.839V23.258a.84.84,0,0,0,.839.839h15.1a.84.84,0,0,0,.839-.839V11.516a.84.84,0,0,0-.839-.839Z" transform="translate(-11075 -7087.936)" fill="#ff8e29"/>
    <path id="Path_26075" data-name="Path 26075" d="M18.581,11.742a.839.839,0,0,1-.839-.839V6.71a5.032,5.032,0,0,0-10.064,0V10.9A.839.839,0,1,1,6,10.9V6.71a6.71,6.71,0,1,1,13.419,0V10.9A.839.839,0,0,1,18.581,11.742Z" transform="translate(-11074.646 -7089)" fill="#ff8e29"/>
    <path id="Path_26076" data-name="Path 26076" d="M12.237,17.473a2.237,2.237,0,1,1,2.237-2.237A2.239,2.239,0,0,1,12.237,17.473Zm0-2.8a.559.559,0,1,0,.559.559A.56.56,0,0,0,12.237,14.677Z" transform="translate(-11074.172 -7087.462)" fill="#ff8e29"/>
    <path id="Path_26077" data-name="Path 26077" d="M12.089,20.5a.839.839,0,0,1-.839-.839V16.589a.839.839,0,1,1,1.677,0v3.075A.839.839,0,0,1,12.089,20.5Z" transform="translate(-11074.024 -7087.137)" fill="#ff8e29"/>
  </g>
</svg>
