<svg xmlns="http://www.w3.org/2000/svg" width="17.921" height="27.32" viewBox="0 0 17.921 27.32">
  <g id="specility" transform="translate(10925.576 6603.66)">
    <path id="Shape" d="M3.967,11.868a8.66,8.66,0,1,0,10.691,0l3.42-5.689a1.357,1.357,0,0,0-.019-1.435L15.169.211A.484.484,0,0,0,14.784,0H3.84a.483.483,0,0,0-.383.211L.568,4.743A1.357,1.357,0,0,0,.549,6.178Zm13.1,6.792a7.752,7.752,0,1,1-7.752-7.737A7.745,7.745,0,0,1,17.064,18.659Zm-5.888-13.2H7.645L4.68.91h9.29Zm-.559.91L9.463,8.253,8.237,6.371ZM17.3,5.709l-3.386,5.634a8.615,8.615,0,0,0-4.46-1.324l5.343-8.7,2.5,3.917a.454.454,0,0,1,.006.478ZM1.335,5.231,3.843,1.3,8.935,9.114l-.587.956a8.6,8.6,0,0,0-3.633,1.274L1.329,5.71a.454.454,0,0,1,.006-.476Z" transform="translate(-10925.929 -6603.66)" fill="#ff8e29"/>
    <path id="Shape-2" data-name="Shape" d="M11.84,46.371a5.929,5.929,0,0,1-5.928-5.916.456.456,0,0,0-.912,0,6.841,6.841,0,0,0,6.84,6.827.455.455,0,1,0,0-.91Z" transform="translate(-10928.457 -6625.456)" fill="#ff8e29"/>
    <path id="Shape-3" data-name="Shape" d="M19,26.455a.456.456,0,0,0,.456.455,5.929,5.929,0,0,1,5.928,5.916.456.456,0,0,0,.912,0A6.841,6.841,0,0,0,19.456,26,.456.456,0,0,0,19,26.455Z" transform="translate(-10936.073 -6617.827)" fill="#ff8e29"/>
    <path id="Shape-4" data-name="Shape" d="M18.577,33.562l-1.939-.295-.866-1.841a.736.736,0,0,0-1.335,0l-.866,1.841-1.939.295a.738.738,0,0,0-.593.5.75.75,0,0,0,.176.766l1.418,1.448L12.3,38.322a.746.746,0,0,0,.307.736.731.731,0,0,0,.775.042l1.724-.949,1.723.949a.729.729,0,0,0,.775-.042.746.746,0,0,0,.307-.736l-.335-2.045,1.418-1.448a.75.75,0,0,0,.176-.766A.738.738,0,0,0,18.577,33.562ZM16.866,35.7a.752.752,0,0,0-.205.649l.293,1.785-1.5-.825a.731.731,0,0,0-.706,0l-1.5.824.292-1.784a.751.751,0,0,0-.2-.649l-1.257-1.284,1.716-.261a.74.74,0,0,0,.556-.418l.748-1.587.748,1.587a.739.739,0,0,0,.557.418l1.715.261Z" transform="translate(-10931.72 -6620.551)" fill="#ff8e29"/>
  </g>
</svg>
