<svg xmlns="http://www.w3.org/2000/svg" width="60" height="60" viewBox="0 0 60 60">
  <g id="Building" transform="translate(4846 22446)">
    <circle id="Ellipse_509" data-name="Ellipse 509" cx="30" cy="30" r="30" transform="translate(-4846 -22446)" fill="none"/>
    <g id="Building-2" data-name="Building" transform="translate(653 137.001)">
      <path id="Path_21232" data-name="Path 21232" d="M39.308,38.642h-4V16.656a.666.666,0,0,0-.666-.666H25.317V.666A.666.666,0,0,0,24.651,0H7.329a.666.666,0,0,0-.666.666V38.642h-6a.666.666,0,1,0,0,1.332H39.308a.666.666,0,1,0,0-1.332Zm-25.317,0H11.326v-6a.666.666,0,0,1,.666-.666h1.332a.666.666,0,0,1,.666.666Zm2.665-21.986V38.642H15.324v-6a2,2,0,0,0-2-2H11.992a2,2,0,0,0-2,2v6h-2V1.332h15.99V15.99H17.322A.666.666,0,0,0,16.656,16.656ZM33.978,38.642H17.989V17.322h15.99Z" transform="translate(-5489 -22573)" fill="#ff8e29"/>
      <path id="Path_21233" data-name="Path 21233" d="M204.664,112h-4a.666.666,0,0,0-.666.666v4a.666.666,0,0,0,.666.666h4a.666.666,0,0,0,.666-.666v-4A.666.666,0,0,0,204.664,112ZM204,116h-2.665v-2.665H204Z" transform="translate(-5672.344 -22675.672)" fill="#ff8e29"/>
      <path id="Path_21234" data-name="Path 21234" d="M204.664,32h-4a.666.666,0,0,0-.666.666v4a.666.666,0,0,0,.666.666h4a.666.666,0,0,0,.666-.666v-4A.666.666,0,0,0,204.664,32ZM204,36h-2.665V33.332H204Z" transform="translate(-5672.344 -22602.334)" fill="#ff8e29"/>
      <path id="Path_21235" data-name="Path 21235" d="M124.664,112h-4a.666.666,0,0,0-.666.666v4a.666.666,0,0,0,.666.666h4a.666.666,0,0,0,.666-.666v-4A.666.666,0,0,0,124.664,112ZM124,116h-2.665v-2.665H124Z" transform="translate(-5599.006 -22675.672)" fill="#ff8e29"/>
      <path id="Path_21236" data-name="Path 21236" d="M124.664,32h-4a.666.666,0,0,0-.666.666v4a.666.666,0,0,0,.666.666h4a.666.666,0,0,0,.666-.666v-4A.666.666,0,0,0,124.664,32ZM124,36h-2.665V33.332H124Z" transform="translate(-5599.006 -22602.334)" fill="#ff8e29"/>
      <path id="Path_21237" data-name="Path 21237" d="M124.664,192h-4a.666.666,0,0,0-.666.666v4a.666.666,0,0,0,.666.666h4a.666.666,0,0,0,.666-.666v-4A.666.666,0,0,0,124.664,192ZM124,196h-2.665v-2.665H124Z" transform="translate(-5599.006 -22749.012)" fill="#ff8e29"/>
      <path id="Path_21238" data-name="Path 21238" d="M124.664,272h-4a.666.666,0,0,0-.666.666v4a.666.666,0,0,0,.666.666h4a.666.666,0,0,0,.666-.666v-4A.666.666,0,0,0,124.664,272ZM124,276h-2.665v-2.665H124Z" transform="translate(-5599.006 -22822.348)" fill="#ff8e29"/>
      <path id="Path_21239" data-name="Path 21239" d="M320.666,309.33h4a.666.666,0,0,0,.666-.666v-4a.666.666,0,0,0-.666-.666h-4a.666.666,0,0,0-.666.666v4A.666.666,0,0,0,320.666,309.33Zm.666-4H324V308h-2.665Z" transform="translate(-5782.351 -22851.684)" fill="#ff8e29"/>
      <path id="Path_21240" data-name="Path 21240" d="M320.666,229.33h4a.666.666,0,0,0,.666-.666v-4a.666.666,0,0,0-.666-.666h-4a.666.666,0,0,0-.666.666v4A.666.666,0,0,0,320.666,229.33Zm.666-4H324V228h-2.665Z" transform="translate(-5782.351 -22778.346)" fill="#ff8e29"/>
      <path id="Path_21241" data-name="Path 21241" d="M320.666,389.33h4a.666.666,0,0,0,.666-.666v-4a.666.666,0,0,0-.666-.666h-4a.666.666,0,0,0-.666.666v4A.666.666,0,0,0,320.666,389.33Zm.666-4H324V388h-2.665Z" transform="translate(-5782.351 -22925.02)" fill="#ff8e29"/>
      <path id="Path_21242" data-name="Path 21242" d="M240.666,309.33h4a.666.666,0,0,0,.666-.666v-4a.666.666,0,0,0-.666-.666h-4a.666.666,0,0,0-.666.666v4A.666.666,0,0,0,240.666,309.33Zm.666-4H244V308h-2.665Z" transform="translate(-5709.013 -22851.684)" fill="#ff8e29"/>
      <path id="Path_21243" data-name="Path 21243" d="M240.666,229.33h4a.666.666,0,0,0,.666-.666v-4a.666.666,0,0,0-.666-.666h-4a.666.666,0,0,0-.666.666v4A.666.666,0,0,0,240.666,229.33Zm.666-4H244V228h-2.665Z" transform="translate(-5709.013 -22778.346)" fill="#ff8e29"/>
      <path id="Path_21244" data-name="Path 21244" d="M240.666,389.33h4a.666.666,0,0,0,.666-.666v-4a.666.666,0,0,0-.666-.666h-4a.666.666,0,0,0-.666.666v4A.666.666,0,0,0,240.666,389.33Zm.666-4H244V388h-2.665Z" transform="translate(-5709.013 -22925.02)" fill="#ff8e29"/>
    </g>
  </g>
</svg>
