<svg xmlns="http://www.w3.org/2000/svg" width="23.183" height="18.836" viewBox="0 0 23.183 18.836">
  <path id="mail-inbox-app" d="M20.466,48H2.717A2.72,2.72,0,0,0,0,50.717v2.241l9.97,7.416a2.7,2.7,0,0,0,3.243,0l9.97-7.416V50.717A2.72,2.72,0,0,0,20.466,48Zm.906,4.048-9.24,6.873a.9.9,0,0,1-1.081,0l-9.24-6.873V50.717a.907.907,0,0,1,.906-.906h17.75a.907.907,0,0,1,.906.906Zm0,4.514,1.811-1.347v8.9a2.72,2.72,0,0,1-2.717,2.717H2.717A2.72,2.72,0,0,1,0,64.119v-8.9l1.811,1.347v7.557a.907.907,0,0,0,.906.906h17.75a.907.907,0,0,0,.906-.906Z" transform="translate(0 -48)" fill="#fff"/>
</svg>
