<svg xmlns="http://www.w3.org/2000/svg" width="46.011" height="46" viewBox="0 0 46.011 46">
  <path id="mute" d="M4.388,2A2.069,2.069,0,0,0,2.762,3.467a2.091,2.091,0,0,0,.586,2.114L44.986,47.221a2.082,2.082,0,1,0,2.928-2.928L32.494,28.874V4.736c0-2.635-2.3-3.294-4.1-1.5L17.53,13.909,6.275,2.654A2.09,2.09,0,0,0,4.583,2Zm3.123,14.7a2.086,2.086,0,0,0-2.082,2.082V31.281a2.086,2.086,0,0,0,2.082,2.082h7.157L28.33,46.7c2.082,2.082,4.164,1.016,4.164-1.822V39.543L9.658,16.707Z" transform="translate(-2.679 -1.997)" fill="#ff8e29"/>
</svg>
