<svg xmlns="http://www.w3.org/2000/svg" width="46" height="46" viewBox="0 0 46 46">
  <path id="speaker" d="M26.609,2a2.4,2.4,0,0,0-1.754.766L12,16V34L24.855,47.234A2.391,2.391,0,0,0,29,45.609V4.391A2.4,2.4,0,0,0,26.609,2ZM39.7,10.422l-1.121,1.652a14.963,14.963,0,0,1,0,25.852L39.7,39.578a16.948,16.948,0,0,0,0-29.156Zm-3.371,4.957-1.133,1.664a8.988,8.988,0,0,1,0,15.914l1.133,1.664a10.992,10.992,0,0,0,0-19.242ZM5,16a3.006,3.006,0,0,0-3,3V31a3.006,3.006,0,0,0,3,3h5V16Zm27.922,4.387-1.168,1.723a2.983,2.983,0,0,1,0,5.781l1.168,1.723a5,5,0,0,0,0-9.227Z" transform="translate(-2 -2)" fill="#ff8e29"/>
</svg>
