<svg xmlns="http://www.w3.org/2000/svg" width="15.174" height="10.63" viewBox="0 0 15.174 10.63">
  <g id="facebook" transform="translate(-5.672 -7.778)">
    <path id="youtube" d="M14.86-4.42a1.9,1.9,0,0,0-1.337-1.337,44.409,44.409,0,0,0-5.936-.325,46.14,46.14,0,0,0-5.936.313A1.939,1.939,0,0,0,.313-4.42,20.028,20.028,0,0,0,0-.771a19.954,19.954,0,0,0,.313,3.65A1.9,1.9,0,0,0,1.65,4.216a44.49,44.49,0,0,0,5.936.325,46.139,46.139,0,0,0,5.936-.313A1.9,1.9,0,0,0,14.86,2.891a20.034,20.034,0,0,0,.312-3.649A19.012,19.012,0,0,0,14.86-4.42ZM6.074,1.5V-3.045l3.95,2.274Zm0,0" transform="translate(5.672 13.864)" fill="#ff8e29"/>
  </g>
</svg>
