<svg id="coupon" xmlns="http://www.w3.org/2000/svg" width="24.824" height="16" viewBox="0 0 24.824 16">
  <g id="Group_10418" data-name="Group 10418" transform="translate(19.006 10.182)">
    <g id="Group_10417" data-name="Group 10417">
      <path id="Path_16233" data-name="Path 16233" d="M392.727,301a.727.727,0,1,0,.727.727A.728.728,0,0,0,392.727,301Z" transform="translate(-392 -301)" fill="#9096a0"/>
    </g>
  </g>
  <g id="Group_10420" data-name="Group 10420">
    <g id="Group_10419" data-name="Group 10419">
      <path id="Path_16234" data-name="Path 16234" d="M24.1,91H7.333v2.182a.727.727,0,1,1-1.455,0V91H.727A.727.727,0,0,0,0,91.727v4.364a.727.727,0,0,0,.727.727,2.182,2.182,0,1,1,0,4.364.727.727,0,0,0-.727.727v4.364A.727.727,0,0,0,.727,107H5.818v-2.182a.727.727,0,1,1,1.455,0V107H24.1a.727.727,0,0,0,.727-.727V91.727A.727.727,0,0,0,24.1,91ZM7.273,101.909a.727.727,0,0,1-1.455,0v-1.455a.727.727,0,1,1,1.455,0Zm0-4.364a.727.727,0,1,1-1.455,0V96.091a.727.727,0,1,1,1.455,0Zm4.461-1.455a2.182,2.182,0,1,1,2.182,2.182A2.184,2.184,0,0,1,11.733,96.091Zm1.778,7.878a.727.727,0,0,1-.2-1.009l5.818-8.727a.727.727,0,0,1,1.21.807l-5.818,8.727A.728.728,0,0,1,13.512,103.969Zm6.222.122a2.182,2.182,0,1,1,2.182-2.182A2.184,2.184,0,0,1,19.733,104.091Z" transform="translate(0 -91)" fill="#9096a0"/>
    </g>
  </g>
  <g id="Group_10422" data-name="Group 10422" transform="translate(13.188 4.364)">
    <g id="Group_10421" data-name="Group 10421">
      <path id="Path_16235" data-name="Path 16235" d="M272.727,181a.727.727,0,1,0,.727.727A.728.728,0,0,0,272.727,181Z" transform="translate(-272 -181)" fill="#9096a0"/>
    </g>
  </g>
</svg>
