<svg id="event_box" xmlns="http://www.w3.org/2000/svg" width="20" height="20" viewBox="0 0 20 20">
  <path id="Path_16227" data-name="Path 16227" d="M22.588,24H41.412A.588.588,0,0,0,42,23.412V4.588A.588.588,0,0,0,41.412,4H35.529V14a.588.588,0,0,1-.891.5L32,12.921,29.362,14.5a.588.588,0,0,1-.891-.5V4H22.588A.588.588,0,0,0,22,4.588V23.412A.588.588,0,0,0,22.588,24Z" transform="translate(-22 -4)" fill="#9096a0"/>
  <path id="Path_16228" data-name="Path 16228" d="M37.05,11.731a.588.588,0,0,1,.606,0l2.05,1.23V4H35v8.961Z" transform="translate(-27.353 -4)" fill="#9096a0"/>
</svg>
