<svg id="notification_1_" data-name="notification (1)" xmlns="http://www.w3.org/2000/svg" width="20.167" height="22" viewBox="0 0 20.167 22">
  <path id="Path_24058" data-name="Path 24058" d="M138.333,450.75A3.443,3.443,0,0,0,141.7,448h-6.736A3.443,3.443,0,0,0,138.333,450.75Zm0,0" transform="translate(-129.166 -428.75)" fill="#9096a0"/>
  <path id="Path_24059" data-name="Path 24059" d="M15.594,51.833h-.011a6.424,6.424,0,0,1-6.417-6.417A6.359,6.359,0,0,1,9.779,42.7c-.2-.019-.406-.031-.613-.031a6.417,6.417,0,0,0-6.417,6.417V51.64A6.146,6.146,0,0,1,.56,56.345a1.6,1.6,0,0,0-.5,1.646A1.682,1.682,0,0,0,1.7,59.168H16.623A1.68,1.68,0,0,0,18.3,57.9a1.607,1.607,0,0,0-.547-1.569,6.1,6.1,0,0,1-2.158-4.493Zm0,0" transform="translate(0.001 -40.834)" fill="#9096a0"/>
  <path id="Path_24060" data-name="Path 24060" d="M265.179,4.583A4.583,4.583,0,1,1,260.6,0,4.583,4.583,0,0,1,265.179,4.583Zm0,0" transform="translate(-245.011)" fill="#9096a0"/>
</svg>
