<svg xmlns="http://www.w3.org/2000/svg" viewBox="0 0 64 64" width="64" height="64">
  <g id="Linkedin">
    <rect width="64" height="64" fill="none"/>
    <path fill="#FFFFFF" d="M56,0H8C3.6,0,0,3.6,0,8v48c0,4.4,3.6,8,8,8h48c4.4,0,8-3.6,8-8V8C64,3.6,60.4,0,56,0z M20.3,52H12V24h8.3 V52z M16.2,20.8c-2.7,0-4.4-1.8-4.4-4.1c0-2.3,1.7-4.1,4.3-4.1c2.7,0,4.4,1.8,4.4,4.1C20.6,19,18.9,20.8,16.2,20.8z M52,52h-8.3V37.1 c0-2.1-0.8-3.5-2.9-3.5c-1.6,0-2.5,1.1-2.9,2.2c-0.1,0.4-0.1,0.9-0.1,1.4V52H30V24h8.1v3c1-1.5,2.8-3.6,6.9-3.6 c5,0,8.7,3.3,8.7,10.3V52z"/>
  </g>
</svg>
