<svg xmlns="http://www.w3.org/2000/svg" width="12.841" height="10.435" viewBox="0 0 12.841 10.435">
  <path id="Path_8242" data-name="Path 8242" d="M37.944,35.263a5.256,5.256,0,0,1-1.513.414,2.642,2.642,0,0,0,1.159-1.457,5.274,5.274,0,0,1-1.673.639,2.637,2.637,0,0,0-4.489,2.4A7.478,7.478,0,0,1,26,34.51a2.637,2.637,0,0,0,.815,3.517,2.616,2.616,0,0,1-1.193-.33c0,.011,0,.022,0,.033a2.636,2.636,0,0,0,2.113,2.583,2.645,2.645,0,0,1-1.19.046A2.637,2.637,0,0,0,29,42.189a5.318,5.318,0,0,1-3.9,1.091,7.492,7.492,0,0,0,11.534-6.312c0-.114,0-.228-.008-.341a5.342,5.342,0,0,0,1.315-1.363Z" transform="translate(-25.103 -34.028)" fill="#fff"/>
</svg>
